<svg width="67" height="63" viewBox="0 0 67 63" fill="none" xmlns="http://www.w3.org/2000/svg">
<path fill-rule="evenodd" clip-rule="evenodd" d="M15.3852 1.27315C15.8572 -0.424381 18.4556 -0.424385 18.9276 1.27315L21.5316 10.6385C21.6979 11.2365 22.2013 11.7035 22.8459 11.8578L32.9405 14.2737C34.7702 14.7115 34.7702 17.1222 32.9405 17.5601L22.8459 19.976C22.2013 20.1303 21.6979 20.5973 21.5316 21.1954L18.9276 30.5606C18.4556 32.2582 15.8572 32.2582 15.3852 30.5607L12.7812 21.1954C12.6149 20.5973 12.1115 20.1303 11.4669 19.976L1.37229 17.5601C-0.457428 17.1222 -0.457433 14.7115 1.37229 14.2737L11.4669 11.8578C12.1115 11.7035 12.6149 11.2365 12.7812 10.6385L15.3852 1.27315ZM45.1814 25.6636C45.567 24.2765 47.6903 24.2765 48.0761 25.6636L51.4691 37.8663C51.6048 38.355 52.0161 38.7366 52.5427 38.8627L65.6959 42.0105C67.1909 42.3684 67.1909 44.338 65.6959 44.696L52.5427 47.8438C52.0161 47.9697 51.6048 48.3513 51.4691 48.8403L48.0761 61.0428C47.6903 62.4298 45.567 62.4298 45.1814 61.0428L41.7884 48.8403C41.6525 48.3513 41.2412 47.9697 40.7145 47.8438L27.5615 44.696C26.0664 44.338 26.0664 42.3684 27.5615 42.0105L40.7145 38.8627C41.2412 38.7366 41.6525 38.355 41.7884 37.8663L45.1814 25.6636ZM56.6294 12.6385C56.6294 15.0873 54.4897 17.0724 51.8503 17.0724C49.2108 17.0724 47.0711 15.0873 47.0711 12.6385C47.0711 10.1897 49.2108 8.20461 51.8503 8.20461C54.4897 8.20461 56.6294 10.1897 56.6294 12.6385ZM8.83751 56.9776C11.477 56.9776 13.6166 54.9924 13.6166 52.5437C13.6166 50.0949 11.477 48.1098 8.83751 48.1098C6.19806 48.1098 4.05835 50.0949 4.05835 52.5437C4.05835 54.9924 6.19806 56.9776 8.83751 56.9776Z" fill="#D9D9D9"/>
</svg>