<?xml version="1.0" encoding="utf-8"?>
<!-- Generator: Adobe Illustrator 27.5.0, SVG Export Plug-In . SVG Version: 6.00 Build 0)  -->
<svg version="1.1" xmlns="http://www.w3.org/2000/svg" xmlns:xlink="http://www.w3.org/1999/xlink" x="0px" y="0px"
	 viewBox="0 0 500 500" style="enable-background:new 0 0 500 500;" xml:space="preserve">
<g id="BACKGROUND">
	<rect style="fill:#D7DBFD;" width="500" height="500"/>
</g>
<g id="OBJECTS">
	<g>
		<g>
			<g>
				<rect y="410.417" style="fill:#666EB2;" width="500" height="89.583"/>
				<polygon style="opacity:0.2;fill:#666EB2;" points="114.097,410.302 51.846,472.553 448.154,472.553 380.964,410.511 				"/>
			</g>
			<g>
				<g>
					<rect x="230.848" y="346.259" style="fill:#23276E;" width="38.304" height="73.413"/>
					<g>
						<polygon style="fill:#23276E;" points="374.37,442.138 125.63,442.138 155.316,404.476 344.684,404.476 						"/>
						<polygon style="opacity:0.5;fill:#23276E;" points="374.37,442.138 125.63,442.138 155.316,404.476 344.684,404.476 						"/>
						<rect x="125.63" y="442.138" style="fill:#23276E;" width="248.741" height="7.39"/>
					</g>
					<g>
						<path style="fill:#23276E;" d="M431.68,368.979H68.32c-7.284,0-13.189-5.905-13.189-13.189V126.958
							c0-7.284,5.905-13.189,13.189-13.189h363.36c7.284,0,13.189,5.905,13.189,13.189V355.79
							C444.869,363.074,438.964,368.979,431.68,368.979z"/>
						<rect x="71.315" y="129.476" style="opacity:0.5;fill:#D7DBFD;" width="357.371" height="206.692"/>
						<rect x="79.021" y="137.183" style="opacity:0.5;fill:#D7DBFD;" width="341.958" height="191.279"/>
					</g>
				</g>
				<g>
					<g>
						<path style="fill:#FFFFFF;" d="M224.548,329.061c-7.532,1.52-14.567,5.409-19.861,10.978c-3.355,3.53-5.99,7.669-8.603,11.779
							c-5.776,9.085-11.568,18.202-16.134,27.951c-2.289,4.887-4.296,10.387-2.824,15.579c-2.62,1.569-5.115,3.376-6.877,5.869
							c-0.749,1.06-1.416,2.219-1.627,3.5c-0.21,1.281,0.108,2.707,1.074,3.574c0.687,0.615,1.607,0.885,2.494,1.136
							c0.693,0.197,1.387,0.393,2.08,0.59c-0.452,2.119,1.555,3.742,3.645,4.315c2.09,0.573,4.303,0.098,6.436-0.284
							c5.784-1.036,11.694-1.371,17.558-0.993c0.708,0.046,1.444,0.097,2.102-0.166c1.371-0.548,1.882-2.187,2.226-3.623
							C212.728,382.135,218.058,356.191,224.548,329.061z"/>
						<g>
							<path style="fill:#D7DBFD;" d="M204.115,353.669c-6.018,11.531-11.503,23.704-12.506,36.673
								c-0.591,7.638,0.469,15.381,2.981,22.617c2.439-0.088,4.883-0.061,7.319,0.095c0.708,0.046,1.444,0.097,2.102-0.166
								c1.371-0.548,1.882-2.187,2.226-3.623c6.49-27.13,11.821-53.074,18.311-80.204c-1.434,0.289-2.842,0.691-4.232,1.148
								C213.54,336.709,208.514,345.24,204.115,353.669z"/>
						</g>
						<path style="fill:none;stroke:#D7DBFD;stroke-linecap:round;stroke-linejoin:round;stroke-miterlimit:10;" d="
							M174.237,410.417c-0.332-2.817,0.521-5.754,2.31-7.955c1.789-2.201,4.489-3.637,7.314-3.889"/>
					</g>
					<g>
						<path style="fill:#FFFFFF;" d="M266.675,328.466c2.451,1.622,4.902,3.244,7.354,4.866c4.148,2.744,8.334,5.521,11.764,9.122
							c4.16,4.366,7.044,9.772,9.691,15.19c6.706,13.721,12.241,28.014,16.525,42.673c1.428,0.614,2.354,1.545,3.426,2.67
							c0.972,1.02,1.868,2.113,2.677,3.267c0.811,1.156,1.559,2.459,1.536,3.871c-0.023,1.412-1.111,2.889-2.522,2.849
							c-0.43,1.657-2.195,2.639-3.88,2.939c-1.686,0.3-3.411-0.048-5.088-0.395c-3.892-0.805-7.784-1.61-11.677-2.415
							c-2.963-0.613-6.013-1.262-8.512-2.967c-4.186-2.857-5.991-8.039-7.539-12.865c-1.686-5.258-3.373-10.516-5.059-15.774
							c-5.004-15.602-10.048-31.419-10.891-47.781C264.367,331.48,265.595,330.427,266.675,328.466z"/>
						<g>
							<path style="fill:#D7DBFD;" d="M274.029,333.332c-2.451-1.622-4.902-3.244-7.354-4.866c-1.08,1.961-2.309,3.014-2.193,5.25
								c0.843,16.363,5.887,32.18,10.891,47.781c1.686,5.258,3.372,10.516,5.059,15.774c1.548,4.826,3.352,10.008,7.539,12.865
								c2.499,1.706,5.549,2.354,8.512,2.967c0.391,0.081,0.781,0.162,1.172,0.242c-2.112-26.024-10.02-51.491-18.432-76.47
								C277.522,335.651,275.774,334.486,274.029,333.332z"/>
						</g>
						<path style="fill:none;stroke:#D7DBFD;stroke-linecap:round;stroke-linejoin:round;stroke-miterlimit:10;" d="
							M316.997,413.379c-1.384-5.021-5.471-9.207-10.457-10.711"/>
					</g>
					<g>
						<path style="fill:#FFFFFF;" d="M280.293,418.502c-0.613,0.881-1.623,1.389-2.605,1.823
							c-11.17,4.947-23.849-0.999-36.038-1.812c-9.888-0.66-23.707,12.571-32.392,7.798c-8.685-4.773-11.995-22.293-11.684-32.198
							c0.103-3.296,0.988-6.514,1.96-9.665c7.529-24.414,20.587-46.916,27.217-71.589c4.127,1.769,8.506,1.313,12.995,1.189
							c11.051-0.306,20.945-0.091,30.344,5.729c3.046,16.784,6.729,33.786,12.262,49.922c2.603,7.592,5.504,15.219,6.049,23.226
							C289.038,402.297,285.659,410.792,280.293,418.502z"/>
						<g>
							<path style="fill:#D7DBFD;" d="M266.316,357.676c-4.007-0.837-7.922-1.815-11.754-3.255
								c-3.827-1.439-7.484-3.512-10.273-6.502l-0.005-0.01c-0.001,0.001-0.002,0.002-0.003,0.003
								c-0.001-0.001-0.002-0.002-0.003-0.003l-0.005,0.01c-2.789,2.99-6.446,5.063-10.273,6.502
								c-3.832,1.441-7.746,2.418-11.754,3.255c-0.179,7.644,1.425,15.414,5.245,22.037c3.639,6.309,9.372,11.501,16.206,13.98
								c0,0,0.434,0.253,0.583,0.202c0.148,0.05,0.583-0.202,0.583-0.202c6.834-2.48,12.568-7.671,16.206-13.98
								C264.891,373.09,266.495,365.32,266.316,357.676z"/>
							<path style="fill:#FFFFFF;" d="M262.401,360.027c-3.295-0.688-6.514-1.492-9.665-2.677c-3.147-1.183-6.154-2.888-8.448-5.347
								l-0.004-0.009c-0.001,0.001-0.001,0.001-0.002,0.002c-0.001-0.001-0.002-0.001-0.002-0.002l-0.004,0.009
								c-2.293,2.459-5.3,4.163-8.448,5.347c-3.151,1.185-6.37,1.989-9.665,2.677c-0.147,6.286,1.172,12.675,4.313,18.121
								c2.992,5.188,7.707,9.457,13.327,11.496c0,0,0.357,0.208,0.479,0.167c0.122,0.041,0.479-0.167,0.479-0.167
								c5.62-2.039,10.335-6.308,13.327-11.496C261.229,372.702,262.548,366.313,262.401,360.027z"/>
							<g>
								<path style="fill:#BBC2EF;" d="M252.845,367.573h-16.606v12.821c0,0,0,0.129,0,0.196c0,0.713,3.717,1.291,8.303,1.291
									c4.586,0,8.303-0.578,8.303-1.291c0-0.067,0-0.196,0-0.196V367.573z"/>
								<ellipse style="fill:#BBC2EF;" cx="244.542" cy="367.573" rx="8.303" ry="1.291"/>
								<ellipse style="opacity:0.5;fill:#BBC2EF;" cx="244.542" cy="367.573" rx="8.303" ry="1.291"/>
								<path style="fill:#BBC2EF;" d="M241.756,367.543c0,0.237-0.739,0.429-1.651,0.429c-0.912,0-1.651-0.192-1.651-0.429
									c0-0.237,0.739-0.429,1.651-0.429C241.017,367.114,241.756,367.306,241.756,367.543z"/>
								<ellipse style="fill:#BBC2EF;" cx="249.35" cy="367.543" rx="1.651" ry="0.429"/>
								<path style="fill:#FFFFFF;" d="M245.452,374.319c0.372-0.278,0.616-0.718,0.616-1.218c0-0.843-0.683-1.526-1.526-1.526
									c-0.843,0-1.526,0.683-1.526,1.526c0,0.5,0.244,0.94,0.616,1.218l-0.502,2.804c-0.106,0.592,0.349,1.136,0.951,1.136h0.922
									c0.601,0,1.056-0.544,0.951-1.136L245.452,374.319z"/>
								<g style="opacity:0.46;">
									<path style="fill:#FFFFFF;" d="M244.542,372.328c-0.427,0-0.773,0.347-0.773,0.773c0,0.242,0.115,0.466,0.314,0.616
										c0.228,0.171,0.34,0.455,0.29,0.735l-0.502,2.804c-0.015,0.085,0.023,0.146,0.046,0.174
										c0.024,0.029,0.077,0.076,0.164,0.076h0.922c0.087,0,0.14-0.048,0.163-0.076c0.024-0.028,0.062-0.089,0.047-0.174
										l-0.502-2.803c-0.05-0.28,0.062-0.564,0.29-0.735c0.2-0.15,0.314-0.374,0.314-0.616
										C245.315,372.675,244.969,372.328,244.542,372.328z"/>
								</g>
								<g>
									<path style="fill:#C6C6C6;" d="M244.785,357.593v-0.004c-0.026,0-0.051,0.001-0.077,0.002
										c-0.032,0-0.063-0.002-0.095-0.002v0.004c-2.997,0.092-5.408,2.557-5.408,5.576v4.097v0.613
										c0.266,0.057,0.607,0.092,0.979,0.092c0.372,0,0.714-0.034,0.979-0.092v-0.613v-4.097c0-1.97,1.582-3.574,3.541-3.617
										c2.256,0.043,3.754,1.648,3.754,3.617v4.097v0.613c0.266,0.057,0.607,0.092,0.979,0.092c0.372,0,0.713-0.034,0.979-0.092
										v-0.613v-4.097C250.417,360.139,248.521,357.667,244.785,357.593z"/>
									<path style="opacity:0.5;fill:#C6C6C6;" d="M249.438,367.369v-4.251c0-2.552-2.055-4.622-4.6-4.65l0-0.003
										c-0.009,0-0.017,0.001-0.026,0.001s-0.017-0.001-0.026-0.001l0,0.003c-2.545,0.028-4.601,2.098-4.601,4.65v4.251
										c-0.337,0-0.661,0.016-0.979-0.001v0.511c0.266,0.057,0.607,0.092,0.979,0.092c0.372,0,0.714-0.034,0.979-0.092v-0.613
										v-4.097c0-1.968,1.796-3.571,3.759-3.617c1.957,0.046,3.536,1.649,3.536,3.617v4.097v0.613
										c0.266,0.057,0.607,0.092,0.979,0.092c0.372,0,0.713-0.034,0.979-0.092v-0.511
										C250.1,367.385,249.775,367.369,249.438,367.369z"/>
								</g>
							</g>
						</g>
					</g>
					<g>
						<path style="fill:#D7DBFD;" d="M224.179,441.159c-8.532-3.495-15.523-10.582-18.901-19.161
							c-1.4-3.556-0.067-8.464,0.854-12.173c0.92-3.71,2.71-7.313,5.65-9.754c5.095-4.228,12.492-4.173,18.977-2.838
							c3.371,0.694,6.87,1.786,9.162,4.354c1.44,1.613,2.271,3.668,3.007,5.701c1.556,4.3,2.812,8.708,3.755,13.182
							c0.491,2.33,0.896,4.76,0.333,7.073c-1.277,5.251-7.145,8.163-12.543,8.418c-1.415,0.067-2.855,0.005-4.223,0.373
							C227.875,436.973,224.757,438.768,224.179,441.159z"/>
						<g style="opacity:0.5;">
							<path style="fill:#D7DBFD;" d="M244.951,416.817c-2.516-5.956-8.443-10.601-14.909-10.643
								c-3.277-0.021-6.471,1.078-9.395,2.557c-2.54,1.284-4.972,2.901-6.743,5.128c-2.747,3.453-3.653,8.16-2.941,12.515
								c0.512,3.13,1.809,6.078,3.561,8.734c2.858,2.531,6.121,4.603,9.655,6.05c0.578-2.39,3.696-4.186,6.07-4.825
								c1.368-0.368,2.808-0.306,4.223-0.373c4.599-0.218,9.53-2.37,11.681-6.249C246.936,425.37,246.659,420.862,244.951,416.817z"
								/>
						</g>
						<ellipse style="fill:#FFFFFF;" cx="229.636" cy="426.959" rx="16.723" ry="15.178"/>
					</g>
					<g>
						<path style="fill:#D7DBFD;" d="M243.267,412.876c0.941-2.979,3.275-6.059,5.391-8.357c4.542-4.932,10.861-8.381,17.555-8.757
							c6.694-0.376,13.656,2.578,17.454,8.103c3.416,4.968,2.704,11.505,3.506,17.481c0.273,2.035,0.231,4.102-0.407,6.054
							C282.238,441.261,256.593,451.462,243.267,412.876z"/>
						<g style="opacity:0.5;">
							<path style="fill:#D7DBFD;" d="M285.516,419.163c-1.582-5.208-5.558-9.854-10.793-11.344
								c-2.449-0.697-5.051-0.695-7.577-0.375c-1.866,0.236-3.72,0.645-5.457,1.366c-5.673,2.353-9.705,8.224-9.863,14.364
								c-0.104,4.033,1.475,8.03,4.137,11.052c12.285,11.02,26.229,3.996,30.314-5.528
								C286.622,425.488,286.452,422.245,285.516,419.163z"/>
						</g>
						<path style="fill:#FFFFFF;" d="M284.962,424.149c1.043,7.378-4.965,14.327-13.418,15.521
							c-8.453,1.194-16.151-3.818-17.193-11.196c-1.043-7.378,4.965-14.327,13.418-15.521
							C276.222,411.759,283.92,416.771,284.962,424.149z"/>
					</g>
					<g style="opacity:0.5;">
						<path style="fill:#D7DBFD;" d="M282.137,339.106c-2.565-2.094-5.343-3.944-8.109-5.774c-0.51-0.337-1.02-0.675-1.53-1.012
							c-0.855-4.183-1.652-8.37-2.409-12.542c-9.399-5.82-19.293-6.035-30.344-5.729c-4.489,0.124-8.868,0.58-12.995-1.189
							c-1.557,5.794-3.476,11.465-5.587,17.073c-2.79,0.843-5.472,2.026-7.998,3.48c7.62,2.877,15.84,4.298,23.948,5.464
							C252,341.014,267.675,342.361,282.137,339.106z"/>
					</g>
					<g>
						<path style="fill:#FFFFFF;" d="M338.866,280.005c1.76,1.674,1.653,4.476,1.278,6.875c-0.553,3.535-1.409,7.023-2.555,10.413
							c-0.241,0.713-0.503,1.436-0.968,2.027c-0.765,0.97-1.98,1.464-3.168,1.802c-0.59,0.168-1.201,0.31-1.811,0.249
							c-1.142-0.114-2.125-0.946-2.66-1.961c-0.536-1.015-0.681-2.192-0.684-3.34c-0.005-1.648,0.264-3.285,0.582-4.903
							c0.62-3.152,1.131-8.532,3.047-11.162C333.365,278.03,337.007,278.237,338.866,280.005z"/>
						<path style="fill:#D7DBFD;" d="M332.95,270.444c1.59,2.71,1.78,6.009,1.626,9.147c-0.328,6.676-2.022,13.211-4.046,19.581
							c-0.977,3.075-2.103,6.239-4.383,8.523c-2.591,2.596-6.573,3.715-10.137,2.847c-0.803-0.195-1.622-0.51-2.149-1.146
							c-0.668-0.805-0.73-1.937-0.747-2.983c-0.192-11.845,1.448-23.718,4.844-35.067c0.986-3.294,1.884-8.712,6.099-7.393
							C327.418,265.005,331.144,267.366,332.95,270.444z"/>
						<g style="opacity:0.5;">
							<path style="fill:#D7DBFD;" d="M329.964,267.112c-1.779-1.431-3.904-2.531-5.907-3.159c-4.215-1.319-5.113,4.099-6.099,7.393
								c-3.397,11.349-5.037,23.222-4.844,35.067c0.017,1.046,0.079,2.178,0.747,2.983c0.528,0.636,1.346,0.951,2.149,1.146
								c1.896,0.462,3.906,0.346,5.766-0.24C328.518,297.07,331.431,281.891,329.964,267.112z"/>
						</g>
						<path style="fill:#FFFFFF;" d="M160.533,265.894c-1.466,5.346-1.14,11.166,0.915,16.315c1.043,2.615,2.763,5.254,5.463,6.054
							c0.579,0.172,1.247,0.238,1.751-0.095c0.531-0.35,0.72-1.028,0.845-1.652c0.872-4.351,0.547-8.842,0.215-13.267
							c-0.161-2.655,0.564-10.264-1.647-12.003C164.958,258.796,161.229,263.356,160.533,265.894z"/>
						<path style="fill:#D7DBFD;" d="M171.654,248.669c-2.751,1.349-4.7,3.996-5.779,6.864c-1.078,2.868-1.375,5.964-1.531,9.024
							c-0.317,6.209-0.095,12.446,0.664,18.616c0.515,4.187,1.355,8.526,3.941,11.859c2.586,3.332,7.403,5.284,11.17,3.385
							c0.817-0.412,1.562-0.995,2.071-1.756c1.325-1.981,0.803-4.609,0.314-6.942c-1.926-9.187-2.528-18.647-1.807-28.005
							c0.23-2.986,2.255-8.653,0.87-11.445C179.981,247.071,174.31,247.367,171.654,248.669z"/>
						<g style="opacity:0.5;">
							<path style="fill:#D7DBFD;" d="M180.696,261.713c0.23-2.986,2.255-8.653,0.87-11.445c-0.908-1.831-3.157-2.513-5.412-2.52
								c-6.179,16.382-6.177,35.13,0.322,51.397c1.25,0.066,2.495-0.151,3.642-0.729c0.817-0.412,1.562-0.995,2.071-1.756
								c1.325-1.981,0.803-4.609,0.313-6.942C180.577,280.531,179.975,271.071,180.696,261.713z"/>
						</g>
						<path style="fill:#FFFFFF;" d="M260.089,335.134L228.5,331.43c-32.833-3.849-56.329-33.587-52.48-66.42v0
							c3.85-32.833,33.587-56.33,66.42-52.48l31.588,3.704c32.833,3.85,56.329,33.587,52.48,66.42v0
							C322.659,315.487,292.922,338.983,260.089,335.134z"/>
						<path style="fill:#D7DBFD;" d="M258.741,325.774l-26.765-3.138c-27.82-3.262-47.729-28.459-44.467-56.279v0
							c3.262-27.82,28.458-47.729,56.279-44.467l26.765,3.138c27.82,3.262,47.728,28.458,44.467,56.279v0
							C311.758,309.127,286.561,329.035,258.741,325.774z"/>
						<path style="opacity:0.5;fill:#D7DBFD;" d="M258.741,325.774l-26.765-3.138c-27.82-3.262-47.729-28.459-44.467-56.279v0
							c3.262-27.82,28.458-47.729,56.279-44.467l26.765,3.138c27.82,3.262,47.728,28.458,44.467,56.279v0
							C311.758,309.127,286.561,329.035,258.741,325.774z"/>
						<path style="fill:#D7DBFD;" d="M258.321,322.856l-25.261-2.962c-26.257-3.078-45.047-26.86-41.969-53.117v0
							c3.079-26.257,26.86-45.047,53.117-41.969l25.261,2.962c26.257,3.078,45.047,26.86,41.969,53.117v0
							C308.36,307.144,284.578,325.934,258.321,322.856z"/>
						<path style="opacity:0.7;fill:#FFFFFF;" d="M257.601,317.854l-22.684-2.66c-23.578-2.764-40.452-24.12-37.687-47.698l0,0
							c2.764-23.578,24.12-40.452,47.698-37.687l22.684,2.66c23.579,2.764,40.452,24.12,37.687,47.698l0,0
							C302.535,303.746,281.18,320.619,257.601,317.854z"/>
						
							<ellipse transform="matrix(0.1164 -0.9932 0.9932 0.1164 -57.7818 487.8836)" style="opacity:0.6;fill:#FFFFFF;" cx="245.322" cy="276.418" rx="27.026" ry="42.139"/>
						
							<ellipse transform="matrix(0.1164 -0.9932 0.9932 0.1164 -57.7808 487.8851)" style="fill:#FFFFFF;" cx="245.322" cy="276.418" rx="13.518" ry="21.078"/>
						<g>
							<ellipse style="fill:#434343;" cx="246.265" cy="284.055" rx="3.013" ry="1.291"/>
							<ellipse style="fill:#434343;" cx="217.131" cy="273.564" rx="3.444" ry="7.533"/>
							<path style="fill:#434343;" d="M284.726,279.044c-0.863,4.07-3.07,7.05-4.931,6.656c-1.861-0.394-2.67-4.013-1.807-8.084
								c0.863-4.07,3.07-7.05,4.931-6.656C284.779,271.355,285.588,274.974,284.726,279.044z"/>
							<path style="fill:#E286B8;" d="M225.733,290.479c0,2.603-3.903,4.712-8.717,4.712s-8.717-2.11-8.717-4.712
								s3.903-4.713,8.717-4.713S225.733,287.876,225.733,290.479z"/>
							<path style="fill:#E286B8;" d="M294.997,292.472c0,2.603-3.903,4.713-8.717,4.713s-8.717-2.11-8.717-4.713
								c0-2.603,3.903-4.713,8.717-4.713S294.997,289.869,294.997,292.472z"/>
							<path style="fill:none;stroke:#434343;stroke-linecap:round;stroke-linejoin:round;stroke-miterlimit:10;" d="
								M250.786,295.24c2.854,0.284,5.814-0.888,7.7-3.048"/>
						</g>
					</g>
				</g>
			</g>
		</g>
		<g>
			<g>
				<path style="opacity:0.5;fill:#A5A9E8;" d="M451.192,407.466H363.59c-6.471,0-11.717-5.246-11.717-11.717V295.726
					c0-6.471,5.246-11.717,11.717-11.717h87.602c6.471,0,11.717,5.246,11.717,11.717v100.022
					C462.909,402.22,457.663,407.466,451.192,407.466z"/>
				<path style="fill:#FAFDF8;" d="M459.163,399.126h-87.602c-6.471,0-11.717-5.246-11.717-11.717V287.387
					c0-6.471,5.246-11.717,11.717-11.717h87.602c6.471,0,11.717,5.246,11.717,11.717v100.022
					C470.88,393.88,465.635,399.126,459.163,399.126z"/>
				<g>
					<path style="fill:#666EB2;" d="M470.88,286.004c0-5.707-4.627-10.334-10.334-10.334h-90.367
						c-5.707,0-10.334,4.627-10.334,10.334v0.189H470.88V286.004z"/>
				</g>
				<g>
					<path style="opacity:0.5;fill:#FAFDF8;" d="M371.185,280.747c0,1.118-0.906,2.025-2.024,2.025
						c-1.118,0-2.025-0.906-2.025-2.025c0-1.118,0.906-2.024,2.025-2.024C370.278,278.723,371.185,279.629,371.185,280.747z"/>
					<path style="opacity:0.5;fill:#FAFDF8;" d="M377.763,280.747c0,1.118-0.906,2.025-2.024,2.025s-2.025-0.906-2.025-2.025
						c0-1.118,0.906-2.024,2.025-2.024S377.763,279.629,377.763,280.747z"/>
					<path style="opacity:0.5;fill:#FAFDF8;" d="M383.946,280.747c0,1.118-0.906,2.025-2.025,2.025
						c-1.118,0-2.025-0.906-2.025-2.025c0-1.118,0.906-2.024,2.025-2.024C383.04,278.723,383.946,279.629,383.946,280.747z"/>
				</g>
				<g>
					<g>
						<path style="fill:#D7DBFD;" d="M448.858,365.035h-67.074c-4.915,0-8.899-3.984-8.899-8.899v0c0-4.915,3.984-8.899,8.899-8.899
							h67.074c4.915,0,8.899,3.984,8.899,8.899v0C457.757,361.051,453.773,365.035,448.858,365.035z"/>
						<g>
							<path style="fill:#A5A9E8;" d="M390.471,356.051c0,2.006-1.626,3.632-3.632,3.632c-2.006,0-3.632-1.626-3.632-3.632
								c0-2.006,1.626-3.632,3.632-3.632C388.845,352.419,390.471,354.045,390.471,356.051z"/>
							<path style="fill:#A5A9E8;" d="M404.425,356.051c0,2.006-1.626,3.632-3.632,3.632c-2.006,0-3.632-1.626-3.632-3.632
								c0-2.006,1.626-3.632,3.632-3.632C402.799,352.419,404.425,354.045,404.425,356.051z"/>
							<path style="fill:#A5A9E8;" d="M418.38,356.051c0,2.006-1.626,3.632-3.632,3.632c-2.006,0-3.632-1.626-3.632-3.632
								c0-2.006,1.626-3.632,3.632-3.632C416.754,352.419,418.38,354.045,418.38,356.051z"/>
							<path style="fill:#A5A9E8;" d="M432.334,356.051c0,2.006-1.626,3.632-3.632,3.632c-2.006,0-3.632-1.626-3.632-3.632
								c0-2.006,1.626-3.632,3.632-3.632C430.708,352.419,432.334,354.045,432.334,356.051z"/>
							<path style="fill:#A5A9E8;" d="M446.288,356.051c0,2.006-1.626,3.632-3.632,3.632c-2.006,0-3.632-1.626-3.632-3.632
								c0-2.006,1.626-3.632,3.632-3.632C444.662,352.419,446.288,354.045,446.288,356.051z"/>
						</g>
					</g>
					<g>
						<path style="fill:#D7DBFD;" d="M449.449,390.365h-67.074c-4.915,0-8.899-3.984-8.899-8.899l0,0
							c0-4.915,3.984-8.899,8.899-8.899h67.074c4.915,0,8.899,3.984,8.899,8.899l0,0
							C458.348,386.381,454.364,390.365,449.449,390.365z"/>
						<g>
							<path style="fill:#A5A9E8;" d="M387.948,377.676c0.254,0,0.431,0.052,0.534,0.154c0.103,0.103,0.154,0.275,0.154,0.516v1.72
								l1.92-0.598c0.181-0.06,0.326-0.054,0.435,0.018c0.109,0.072,0.205,0.217,0.29,0.435c0.072,0.242,0.081,0.425,0.027,0.552
								c-0.055,0.126-0.196,0.227-0.425,0.299l-1.847,0.561l1.231,1.739c0.097,0.145,0.127,0.284,0.091,0.416
								c-0.036,0.133-0.151,0.266-0.344,0.398c-0.193,0.133-0.362,0.19-0.507,0.173c-0.145-0.019-0.278-0.118-0.398-0.299
								l-1.177-1.594l-1.176,1.612c-0.121,0.169-0.251,0.257-0.39,0.263c-0.139,0.006-0.311-0.063-0.516-0.208
								c-0.181-0.133-0.284-0.265-0.307-0.398c-0.025-0.133,0.03-0.29,0.163-0.471l1.141-1.63l-1.919-0.561
								c-0.194-0.061-0.314-0.152-0.362-0.272c-0.049-0.12-0.036-0.301,0.036-0.543c0.084-0.242,0.181-0.398,0.29-0.471
								c0.109-0.072,0.259-0.072,0.452,0l1.938,0.597v-1.756c0-0.23,0.051-0.396,0.154-0.499
								C387.534,377.728,387.706,377.676,387.948,377.676z"/>
							<path style="fill:#A5A9E8;" d="M399.137,377.676c0.253,0,0.431,0.052,0.534,0.154c0.103,0.103,0.154,0.275,0.154,0.516v1.72
								l1.92-0.598c0.181-0.06,0.326-0.054,0.435,0.018c0.109,0.072,0.205,0.217,0.29,0.435c0.072,0.242,0.081,0.425,0.027,0.552
								c-0.055,0.126-0.196,0.227-0.425,0.299l-1.847,0.561l1.231,1.739c0.097,0.145,0.127,0.284,0.091,0.416
								c-0.036,0.133-0.151,0.266-0.344,0.398c-0.193,0.133-0.362,0.19-0.507,0.173c-0.145-0.019-0.278-0.118-0.398-0.299
								l-1.177-1.594l-1.176,1.612c-0.121,0.169-0.251,0.257-0.39,0.263c-0.139,0.006-0.311-0.063-0.516-0.208
								c-0.181-0.133-0.284-0.265-0.307-0.398c-0.024-0.133,0.03-0.29,0.163-0.471l1.141-1.63l-1.919-0.561
								c-0.194-0.061-0.314-0.152-0.362-0.272c-0.049-0.12-0.036-0.301,0.036-0.543c0.084-0.242,0.181-0.398,0.29-0.471
								c0.109-0.072,0.259-0.072,0.452,0l1.938,0.597v-1.756c0-0.23,0.051-0.396,0.154-0.499
								C398.724,377.728,398.896,377.676,399.137,377.676z"/>
							<path style="fill:#A5A9E8;" d="M410.328,377.676c0.253,0,0.431,0.052,0.534,0.154c0.103,0.103,0.154,0.275,0.154,0.516v1.72
								l1.92-0.598c0.181-0.06,0.326-0.054,0.435,0.018c0.109,0.072,0.205,0.217,0.29,0.435c0.072,0.242,0.081,0.425,0.027,0.552
								c-0.055,0.126-0.196,0.227-0.425,0.299l-1.847,0.561l1.231,1.739c0.097,0.145,0.127,0.284,0.091,0.416
								c-0.036,0.133-0.151,0.266-0.344,0.398c-0.193,0.133-0.362,0.19-0.507,0.173c-0.145-0.019-0.278-0.118-0.398-0.299
								l-1.177-1.594l-1.176,1.612c-0.121,0.169-0.251,0.257-0.39,0.263c-0.139,0.006-0.311-0.063-0.516-0.208
								c-0.181-0.133-0.284-0.265-0.307-0.398c-0.024-0.133,0.03-0.29,0.163-0.471l1.141-1.63l-1.919-0.561
								c-0.194-0.061-0.314-0.152-0.362-0.272c-0.049-0.12-0.036-0.301,0.036-0.543c0.084-0.242,0.181-0.398,0.29-0.471
								c0.109-0.072,0.259-0.072,0.452,0l1.938,0.597v-1.756c0-0.23,0.051-0.396,0.154-0.499
								C409.915,377.728,410.086,377.676,410.328,377.676z"/>
							<path style="fill:#A5A9E8;" d="M421.518,377.676c0.254,0,0.431,0.052,0.534,0.154c0.103,0.103,0.154,0.275,0.154,0.516v1.72
								l1.92-0.598c0.181-0.06,0.326-0.054,0.435,0.018c0.109,0.072,0.205,0.217,0.29,0.435c0.073,0.242,0.081,0.425,0.027,0.552
								c-0.055,0.126-0.196,0.227-0.425,0.299l-1.847,0.561l1.231,1.739c0.097,0.145,0.127,0.284,0.091,0.416
								c-0.036,0.133-0.151,0.266-0.344,0.398c-0.193,0.133-0.362,0.19-0.507,0.173c-0.145-0.019-0.278-0.118-0.398-0.299
								l-1.177-1.594l-1.176,1.612c-0.121,0.169-0.251,0.257-0.39,0.263c-0.139,0.006-0.311-0.063-0.516-0.208
								c-0.181-0.133-0.284-0.265-0.307-0.398c-0.024-0.133,0.03-0.29,0.163-0.471l1.141-1.63l-1.919-0.561
								c-0.194-0.061-0.314-0.152-0.362-0.272c-0.049-0.12-0.036-0.301,0.036-0.543c0.084-0.242,0.181-0.398,0.29-0.471
								c0.109-0.072,0.259-0.072,0.452,0l1.938,0.597v-1.756c0-0.23,0.051-0.396,0.154-0.499
								C421.104,377.728,421.276,377.676,421.518,377.676z"/>
							<path style="fill:#A5A9E8;" d="M432.708,377.676c0.254,0,0.431,0.052,0.534,0.154c0.103,0.103,0.154,0.275,0.154,0.516v1.72
								l1.92-0.598c0.181-0.06,0.326-0.054,0.434,0.018c0.109,0.072,0.205,0.217,0.29,0.435c0.072,0.242,0.081,0.425,0.027,0.552
								c-0.055,0.126-0.196,0.227-0.425,0.299l-1.847,0.561l1.231,1.739c0.097,0.145,0.127,0.284,0.091,0.416
								c-0.036,0.133-0.151,0.266-0.344,0.398c-0.193,0.133-0.362,0.19-0.507,0.173c-0.145-0.019-0.278-0.118-0.398-0.299
								l-1.177-1.594l-1.176,1.612c-0.121,0.169-0.251,0.257-0.39,0.263c-0.139,0.006-0.311-0.063-0.516-0.208
								c-0.181-0.133-0.284-0.265-0.307-0.398c-0.025-0.133,0.03-0.29,0.163-0.471l1.141-1.63l-1.919-0.561
								c-0.194-0.061-0.314-0.152-0.362-0.272c-0.049-0.12-0.036-0.301,0.036-0.543c0.084-0.242,0.181-0.398,0.29-0.471
								c0.109-0.072,0.259-0.072,0.452,0l1.938,0.597v-1.756c0-0.23,0.051-0.396,0.154-0.499
								C432.295,377.728,432.466,377.676,432.708,377.676z"/>
							<path style="fill:#A5A9E8;" d="M443.898,377.676c0.254,0,0.431,0.052,0.534,0.154c0.103,0.103,0.154,0.275,0.154,0.516v1.72
								l1.92-0.598c0.181-0.06,0.326-0.054,0.434,0.018c0.109,0.072,0.205,0.217,0.29,0.435c0.072,0.242,0.081,0.425,0.027,0.552
								c-0.055,0.126-0.196,0.227-0.425,0.299l-1.847,0.561l1.231,1.739c0.097,0.145,0.127,0.284,0.091,0.416
								c-0.036,0.133-0.151,0.266-0.344,0.398c-0.193,0.133-0.362,0.19-0.507,0.173c-0.145-0.019-0.278-0.118-0.398-0.299
								l-1.177-1.594l-1.176,1.612c-0.121,0.169-0.251,0.257-0.39,0.263c-0.139,0.006-0.311-0.063-0.516-0.208
								c-0.181-0.133-0.284-0.265-0.307-0.398c-0.024-0.133,0.03-0.29,0.162-0.471l1.141-1.63l-1.919-0.561
								c-0.194-0.061-0.314-0.152-0.362-0.272c-0.049-0.12-0.036-0.301,0.036-0.543c0.084-0.242,0.181-0.398,0.29-0.471
								c0.109-0.072,0.259-0.072,0.452,0l1.938,0.597v-1.756c0-0.23,0.051-0.396,0.154-0.499
								C443.484,377.728,443.656,377.676,443.898,377.676z"/>
						</g>
					</g>
					<g>
						<ellipse style="fill:#D7DBFD;" cx="414.845" cy="340.609" rx="20.354" ry="3.619"/>
						<g>
							<g>
								
									<ellipse transform="matrix(0.2274 -0.9738 0.9738 0.2274 12.2706 648.5091)" style="fill:#E5BC7A;" cx="414.845" cy="316.521" rx="23.838" ry="23.838"/>
								
									<ellipse transform="matrix(0.2274 -0.9738 0.9738 0.2274 12.2706 648.5091)" style="opacity:0.5;fill:#E5BC7A;" cx="414.845" cy="316.521" rx="23.838" ry="23.838"/>
								<circle style="opacity:0.5;fill:#E5BC7A;" cx="414.845" cy="316.521" r="21.843"/>
								<circle style="fill:#E5BC7A;" cx="414.845" cy="316.521" r="19.601"/>
								<g>
									<g>
										<path style="fill:#E5BC7A;" d="M421.438,320.673c0,0.762-0.127,1.465-0.381,2.111c-0.255,0.645-0.623,1.205-1.107,1.678
											c-0.484,0.473-1.061,0.859-1.73,1.159c-0.669,0.3-1.419,0.508-2.249,0.623v2.595c0,0.3-0.035,0.559-0.104,0.778
											c-0.069,0.218-0.196,0.386-0.381,0.501c-0.185,0.116-0.462,0.173-0.83,0.173c-0.369,0-0.646-0.064-0.831-0.19
											c-0.185-0.127-0.305-0.3-0.363-0.519c-0.057-0.22-0.087-0.479-0.087-0.778v-2.595c-0.645-0.092-1.275-0.27-1.885-0.536
											c-0.611-0.265-1.153-0.594-1.626-0.987c-0.473-0.392-0.871-0.818-1.194-1.28c-0.254-0.416-0.393-0.773-0.415-1.073
											c-0.024-0.3,0.184-0.634,0.623-1.003c0.346-0.254,0.645-0.381,0.899-0.381c0.253,0,0.496,0.092,0.727,0.276
											c0.23,0.186,0.438,0.416,0.623,0.693c0.369,0.553,0.859,0.98,1.47,1.28c0.611,0.301,1.274,0.451,1.989,0.451
											c0.854,0,1.58-0.115,2.181-0.346c0.599-0.231,1.055-0.56,1.366-0.987c0.312-0.427,0.467-0.952,0.467-1.575
											c0-0.714-0.237-1.28-0.71-1.695c-0.473-0.416-1.085-0.761-1.834-1.038c-0.75-0.276-1.529-0.576-2.336-0.899
											c-0.623-0.208-1.234-0.455-1.834-0.745c-0.6-0.288-1.142-0.634-1.626-1.037c-0.484-0.403-0.871-0.894-1.159-1.471
											c-0.289-0.577-0.433-1.292-0.433-2.146c0-0.692,0.109-1.32,0.329-1.885c0.219-0.564,0.536-1.067,0.951-1.505
											c0.415-0.438,0.911-0.802,1.488-1.09c0.576-0.288,1.222-0.49,1.937-0.605v-2.423c0-0.3,0.029-0.559,0.087-0.778
											c0.057-0.219,0.178-0.386,0.363-0.502c0.185-0.115,0.462-0.172,0.831-0.172c0.368,0,0.645,0.057,0.83,0.172
											c0.185,0.116,0.312,0.277,0.381,0.485c0.069,0.207,0.104,0.461,0.104,0.76v2.423c0.876,0.116,1.643,0.363,2.301,0.743
											c0.658,0.381,1.194,0.778,1.609,1.194c0.369,0.346,0.565,0.652,0.589,0.917c0.023,0.266-0.127,0.595-0.451,0.987
											c-0.185,0.254-0.386,0.433-0.605,0.536c-0.22,0.104-0.439,0.127-0.658,0.069c-0.22-0.057-0.456-0.19-0.71-0.398
											c-0.276-0.277-0.594-0.519-0.951-0.727c-0.358-0.207-0.745-0.375-1.16-0.502c-0.414-0.126-0.865-0.189-1.349-0.189
											c-0.462,0-0.888,0.057-1.28,0.172c-0.393,0.116-0.722,0.288-0.987,0.519c-0.266,0.231-0.473,0.501-0.622,0.813
											c-0.15,0.311-0.225,0.652-0.225,1.021c0,0.6,0.202,1.085,0.605,1.453c0.403,0.37,0.928,0.681,1.575,0.935
											c0.645,0.253,1.337,0.496,2.076,0.727c0.669,0.231,1.338,0.484,2.007,0.761c0.669,0.276,1.285,0.623,1.851,1.037
											c0.565,0.416,1.015,0.946,1.349,1.591C421.27,318.897,421.438,319.705,421.438,320.673z"/>
									</g>
								</g>
							</g>
							<circle style="opacity:0.7;fill:none;stroke:#E5BC7A;stroke-miterlimit:10;" cx="414.845" cy="316.521" r="17.289"/>
						</g>
					</g>
				</g>
			</g>
			<g>
				<g>
					<path style="opacity:0.5;fill:#A5A9E8;" d="M464.421,258.962H340.165c-5.327,0-9.646-4.319-9.646-9.646v-80.189
						c0-5.327,4.318-9.646,9.646-9.646h124.256c5.327,0,9.646,4.318,9.646,9.646v80.189
						C474.066,254.643,469.748,258.962,464.421,258.962z"/>
					<path style="fill:#FAFDF8;" d="M471.789,250.699H347.533c-5.327,0-9.646-4.319-9.646-9.646v-80.189
						c0-5.327,4.318-9.646,9.646-9.646h124.256c5.327,0,9.646,4.318,9.646,9.646v80.189
						C481.434,246.38,477.116,250.699,471.789,250.699z"/>
					<g>
						<g>
							<path style="fill:#666EB2;" d="M481.435,159.589c0-4.988-4.044-9.032-9.032-9.032H346.92c-4.988,0-9.032,4.044-9.032,9.032
								v3.805h143.547V159.589z"/>
						</g>
						<g>
							<path style="opacity:0.5;fill:#FAFDF8;" d="M350.799,157.814c0,1.268-1.028,2.295-2.295,2.295
								c-1.268,0-2.295-1.028-2.295-2.295c0-1.268,1.028-2.295,2.295-2.295C349.771,155.519,350.799,156.547,350.799,157.814z"/>
							<path style="opacity:0.5;fill:#FAFDF8;" d="M358.258,157.814c0,1.268-1.028,2.295-2.295,2.295
								c-1.268,0-2.295-1.028-2.295-2.295c0-1.268,1.028-2.295,2.295-2.295C357.23,155.519,358.258,156.547,358.258,157.814z"/>
							<path style="opacity:0.5;fill:#FAFDF8;" d="M365.268,157.814c0,1.268-1.028,2.295-2.295,2.295s-2.295-1.028-2.295-2.295
								c0-1.268,1.028-2.295,2.295-2.295S365.268,156.547,365.268,157.814z"/>
						</g>
					</g>
				</g>
				<g>
					<g>
						<g>
							<circle style="fill:#D7DBFD;" cx="358.668" cy="180.891" r="9.267"/>
							<circle style="fill:#FAFDF8;" cx="358.668" cy="179.131" r="3.424"/>
							<g>
								<path style="fill:#FAFDF8;" d="M358.668,190.158c2.654,0,5.045-1.117,6.734-2.905c-0.198-2.003-1.266-3.748-2.823-4.853
									c-0.935,1.118-2.34,1.829-3.911,1.829s-2.976-0.711-3.911-1.829c-1.557,1.105-2.625,2.85-2.823,4.853
									C353.623,189.041,356.014,190.158,358.668,190.158z"/>
							</g>
							<circle style="fill:none;stroke:#A5A9E8;stroke-miterlimit:10;" cx="358.668" cy="180.891" r="9.267"/>
						</g>
						<g>
							<path style="fill:#D7DBFD;" d="M461.309,186.322h-81.15c-3,0-5.432-2.432-5.432-5.432l0,0c0-3,2.432-5.431,5.432-5.431h81.15
								c3,0,5.432,2.432,5.432,5.431l0,0C466.74,183.89,464.309,186.322,461.309,186.322z"/>
							<g>
								<path style="fill:#A5A9E8;" d="M380.159,175.459c-3,0-5.432,2.432-5.432,5.431l0,0c0,3,2.432,5.432,5.432,5.432h42.8
									v-10.863H380.159z"/>
							</g>
						</g>
					</g>
					<g>
						<g>
							<circle style="fill:#D7DBFD;" cx="358.668" cy="206.884" r="9.267"/>
							<circle style="fill:#FAFDF8;" cx="358.668" cy="205.124" r="3.424"/>
							<g>
								<path style="fill:#FAFDF8;" d="M358.668,216.151c2.654,0,5.045-1.117,6.734-2.905c-0.198-2.003-1.266-3.748-2.823-4.853
									c-0.935,1.118-2.34,1.829-3.911,1.829s-2.976-0.711-3.911-1.829c-1.557,1.105-2.625,2.85-2.823,4.853
									C353.623,215.034,356.014,216.151,358.668,216.151z"/>
							</g>
							<circle style="fill:none;stroke:#A5A9E8;stroke-miterlimit:10;" cx="358.668" cy="206.884" r="9.267"/>
						</g>
						<g>
							<path style="fill:#D7DBFD;" d="M461.309,212.316h-81.15c-3,0-5.432-2.432-5.432-5.432l0,0c0-3,2.432-5.431,5.432-5.431h81.15
								c3,0,5.432,2.432,5.432,5.431l0,0C466.74,209.884,464.309,212.316,461.309,212.316z"/>
							<g>
								<path style="fill:#A5A9E8;" d="M380.159,201.453c-3,0-5.432,2.432-5.432,5.431l0,0c0,3,2.432,5.432,5.432,5.432h63.486
									v-10.863H380.159z"/>
							</g>
						</g>
					</g>
					<g>
						<g>
							<circle style="fill:#D7DBFD;" cx="358.668" cy="233.243" r="9.267"/>
							<circle style="fill:#FAFDF8;" cx="358.668" cy="231.483" r="3.424"/>
							<g>
								<path style="fill:#FAFDF8;" d="M358.668,242.51c2.654,0,5.045-1.117,6.734-2.905c-0.198-2.002-1.266-3.748-2.823-4.853
									c-0.935,1.118-2.34,1.829-3.911,1.829s-2.976-0.711-3.911-1.829c-1.557,1.105-2.625,2.851-2.823,4.853
									C353.623,241.393,356.014,242.51,358.668,242.51z"/>
							</g>
							<circle style="fill:none;stroke:#A5A9E8;stroke-miterlimit:10;" cx="358.668" cy="233.243" r="9.267"/>
						</g>
						<g>
							<path style="fill:#D7DBFD;" d="M461.309,238.675h-81.15c-3,0-5.432-2.432-5.432-5.432l0,0c0-3,2.432-5.432,5.432-5.432h81.15
								c3,0,5.432,2.432,5.432,5.432l0,0C466.74,236.243,464.309,238.675,461.309,238.675z"/>
							<g>
								<path style="fill:#A5A9E8;" d="M380.159,227.812c-3,0-5.432,2.432-5.432,5.432v0c0,3,2.432,5.431,5.432,5.431H458.6v-10.863
									H380.159z"/>
							</g>
						</g>
					</g>
				</g>
			</g>
			<g>
				<path style="opacity:0.5;fill:#A5A9E8;" d="M288.508,183.367h-88.35c-6.471,0-11.717-5.246-11.717-11.717V43.771
					c0-6.471,5.246-11.717,11.717-11.717h88.35c6.471,0,11.717,5.246,11.717,11.717V171.65
					C300.225,178.121,294.979,183.367,288.508,183.367z"/>
				<g>
					<g>
						<path style="fill:#FAFDF8;" d="M298.879,172.257h-88.35c-6.471,0-11.717-5.246-11.717-11.717V32.662
							c0-6.471,5.246-11.717,11.717-11.717h88.35c6.471,0,11.717,5.246,11.717,11.717V160.54
							C310.596,167.011,305.35,172.257,298.879,172.257z"/>
						<g>
							<path style="fill:#666EB2;" d="M310.596,33.611c0-6.995-5.671-12.666-12.666-12.666h-86.452
								c-6.995,0-12.666,5.671-12.666,12.666v0.231h111.784V33.611z"/>
						</g>
						<g>
							<path style="opacity:0.5;fill:#FAFDF8;" d="M212.711,27.168c0,1.37-1.111,2.481-2.481,2.481c-1.37,0-2.481-1.111-2.481-2.481
								c0-1.37,1.111-2.481,2.481-2.481C211.6,24.687,212.711,25.797,212.711,27.168z"/>
							<path style="opacity:0.5;fill:#FAFDF8;" d="M220.774,27.168c0,1.37-1.111,2.481-2.481,2.481c-1.37,0-2.481-1.111-2.481-2.481
								c0-1.37,1.111-2.481,2.481-2.481C219.663,24.687,220.774,25.797,220.774,27.168z"/>
							<path style="opacity:0.5;fill:#FAFDF8;" d="M228.352,27.168c0,1.37-1.111,2.481-2.481,2.481c-1.37,0-2.481-1.111-2.481-2.481
								c0-1.37,1.111-2.481,2.481-2.481C227.241,24.687,228.352,25.797,228.352,27.168z"/>
						</g>
					</g>
					<g>
						<g>
							<path style="fill:#D7DBFD;" d="M287.334,139.144h-65.26c-4.337,0-7.853-3.516-7.853-7.853v-1.272
								c0-4.337,3.516-7.853,7.853-7.853h65.26c4.337,0,7.853,3.516,7.853,7.853v1.272
								C295.187,135.628,291.671,139.144,287.334,139.144z"/>
							<g>
								<path style="fill:#A5A9E8;" d="M231.545,130.573c0,1.914-1.551,3.465-3.465,3.465c-1.914,0-3.465-1.551-3.465-3.465
									c0-1.913,1.551-3.465,3.465-3.465C229.993,127.108,231.545,128.66,231.545,130.573z"/>
								<path style="fill:#A5A9E8;" d="M244.857,130.573c0,1.914-1.551,3.465-3.465,3.465c-1.914,0-3.465-1.551-3.465-3.465
									c0-1.913,1.551-3.465,3.465-3.465C243.305,127.108,244.857,128.66,244.857,130.573z"/>
								<path style="fill:#A5A9E8;" d="M258.169,130.573c0,1.914-1.551,3.465-3.465,3.465c-1.914,0-3.465-1.551-3.465-3.465
									c0-1.913,1.551-3.465,3.465-3.465C256.617,127.108,258.169,128.66,258.169,130.573z"/>
								<path style="fill:#A5A9E8;" d="M271.481,130.573c0,1.914-1.551,3.465-3.465,3.465c-1.914,0-3.465-1.551-3.465-3.465
									c0-1.913,1.551-3.465,3.465-3.465C269.929,127.108,271.481,128.66,271.481,130.573z"/>
								<path style="fill:#A5A9E8;" d="M284.793,130.573c0,1.914-1.551,3.465-3.465,3.465c-1.914,0-3.465-1.551-3.465-3.465
									c0-1.913,1.551-3.465,3.465-3.465C283.242,127.108,284.793,128.66,284.793,130.573z"/>
							</g>
						</g>
						<g>
							<path style="fill:#D7DBFD;" d="M287.334,163.309h-65.26c-4.337,0-7.853-3.516-7.853-7.853v-1.272
								c0-4.337,3.516-7.853,7.853-7.853h65.26c4.337,0,7.853,3.516,7.853,7.853v1.272
								C295.187,159.793,291.671,163.309,287.334,163.309z"/>
							<g>
								<path style="fill:#A5A9E8;" d="M227.792,151.203c0.242,0,0.412,0.049,0.509,0.147c0.098,0.098,0.147,0.262,0.147,0.493
									v1.641l1.831-0.57c0.173-0.058,0.311-0.052,0.415,0.017c0.103,0.069,0.196,0.207,0.276,0.414
									c0.069,0.231,0.078,0.406,0.026,0.527c-0.052,0.121-0.187,0.216-0.406,0.285l-1.762,0.536l1.175,1.658
									c0.092,0.138,0.121,0.27,0.086,0.397c-0.034,0.127-0.144,0.253-0.328,0.38c-0.185,0.127-0.346,0.182-0.484,0.164
									c-0.138-0.017-0.265-0.112-0.38-0.285l-1.123-1.52l-1.123,1.537c-0.115,0.161-0.239,0.245-0.372,0.25
									c-0.132,0.006-0.297-0.06-0.492-0.198c-0.173-0.127-0.271-0.253-0.294-0.38c-0.023-0.127,0.029-0.277,0.156-0.449
									l1.088-1.554l-1.831-0.536c-0.185-0.058-0.3-0.144-0.346-0.259c-0.046-0.115-0.034-0.288,0.035-0.518
									c0.08-0.231,0.173-0.38,0.276-0.449c0.104-0.069,0.248-0.069,0.432,0l1.848,0.57v-1.676c0-0.218,0.049-0.377,0.147-0.475
									C227.397,151.252,227.561,151.203,227.792,151.203z"/>
								<path style="fill:#A5A9E8;" d="M238.467,151.203c0.242,0,0.412,0.049,0.509,0.147c0.098,0.098,0.147,0.262,0.147,0.493
									v1.641l1.831-0.57c0.173-0.058,0.311-0.052,0.415,0.017c0.103,0.069,0.196,0.207,0.276,0.414
									c0.069,0.231,0.078,0.406,0.026,0.527c-0.052,0.121-0.187,0.216-0.406,0.285l-1.762,0.536l1.175,1.658
									c0.092,0.138,0.121,0.27,0.086,0.397c-0.034,0.127-0.144,0.253-0.328,0.38c-0.185,0.127-0.346,0.182-0.484,0.164
									c-0.138-0.017-0.265-0.112-0.38-0.285l-1.123-1.52l-1.123,1.537c-0.115,0.161-0.239,0.245-0.372,0.25
									c-0.133,0.006-0.297-0.06-0.492-0.198c-0.173-0.127-0.271-0.253-0.294-0.38c-0.023-0.127,0.029-0.277,0.156-0.449
									l1.088-1.554l-1.831-0.536c-0.185-0.058-0.3-0.144-0.346-0.259c-0.046-0.115-0.034-0.288,0.035-0.518
									c0.08-0.231,0.173-0.38,0.276-0.449c0.104-0.069,0.247-0.069,0.432,0l1.848,0.57v-1.676c0-0.218,0.049-0.377,0.147-0.475
									C238.072,151.252,238.236,151.203,238.467,151.203z"/>
								<path style="fill:#A5A9E8;" d="M249.142,151.203c0.241,0,0.412,0.049,0.509,0.147c0.097,0.098,0.148,0.262,0.148,0.493
									v1.641l1.831-0.57c0.173-0.058,0.31-0.052,0.414,0.017c0.103,0.069,0.196,0.207,0.277,0.414
									c0.07,0.231,0.078,0.406,0.025,0.527c-0.051,0.121-0.186,0.216-0.405,0.285l-1.761,0.536l1.174,1.658
									c0.093,0.138,0.12,0.27,0.087,0.397c-0.036,0.127-0.144,0.253-0.329,0.38c-0.184,0.127-0.344,0.182-0.484,0.164
									c-0.137-0.017-0.264-0.112-0.38-0.285l-1.121-1.52l-1.123,1.537c-0.116,0.161-0.241,0.245-0.372,0.25
									c-0.133,0.006-0.298-0.06-0.492-0.198c-0.173-0.127-0.272-0.253-0.294-0.38c-0.023-0.127,0.027-0.277,0.154-0.449
									l1.089-1.554l-1.833-0.536c-0.184-0.058-0.299-0.144-0.344-0.259c-0.046-0.115-0.035-0.288,0.034-0.518
									c0.08-0.231,0.173-0.38,0.277-0.449c0.103-0.069,0.247-0.069,0.433,0l1.847,0.57v-1.676c0-0.218,0.049-0.377,0.148-0.475
									C248.748,151.252,248.912,151.203,249.142,151.203z"/>
								<path style="fill:#A5A9E8;" d="M259.817,151.203c0.242,0,0.412,0.049,0.51,0.147c0.097,0.098,0.147,0.262,0.147,0.493v1.641
									l1.83-0.57c0.173-0.058,0.311-0.052,0.415,0.017c0.104,0.069,0.195,0.207,0.277,0.414c0.069,0.231,0.077,0.406,0.025,0.527
									c-0.052,0.121-0.187,0.216-0.405,0.285l-1.762,0.536l1.174,1.658c0.093,0.138,0.121,0.27,0.087,0.397
									c-0.035,0.127-0.144,0.253-0.328,0.38c-0.184,0.127-0.345,0.182-0.483,0.164c-0.138-0.017-0.265-0.112-0.38-0.285
									l-1.122-1.52l-1.123,1.537c-0.115,0.161-0.24,0.245-0.372,0.25c-0.132,0.006-0.297-0.06-0.492-0.198
									c-0.173-0.127-0.271-0.253-0.294-0.38c-0.023-0.127,0.029-0.277,0.155-0.449l1.088-1.554l-1.832-0.536
									c-0.184-0.058-0.299-0.144-0.345-0.259c-0.046-0.115-0.035-0.288,0.035-0.518c0.08-0.231,0.172-0.38,0.277-0.449
									c0.103-0.069,0.247-0.069,0.432,0l1.849,0.57v-1.676c0-0.218,0.048-0.377,0.147-0.475
									C259.422,151.252,259.587,151.203,259.817,151.203z"/>
								<path style="fill:#A5A9E8;" d="M270.492,151.203c0.242,0,0.412,0.049,0.51,0.147c0.097,0.098,0.147,0.262,0.147,0.493v1.641
									l1.831-0.57c0.173-0.058,0.311-0.052,0.415,0.017c0.103,0.069,0.195,0.207,0.276,0.414c0.069,0.231,0.077,0.406,0.025,0.527
									c-0.052,0.121-0.187,0.216-0.405,0.285l-1.762,0.536l1.174,1.658c0.093,0.138,0.121,0.27,0.087,0.397
									c-0.035,0.127-0.144,0.253-0.328,0.38c-0.184,0.127-0.345,0.182-0.484,0.164c-0.138-0.017-0.265-0.112-0.38-0.285
									l-1.122-1.52l-1.123,1.537c-0.115,0.161-0.24,0.245-0.372,0.25c-0.132,0.006-0.297-0.06-0.492-0.198
									c-0.173-0.127-0.271-0.253-0.293-0.38c-0.023-0.127,0.028-0.277,0.155-0.449l1.088-1.554l-1.832-0.536
									c-0.184-0.058-0.299-0.144-0.345-0.259c-0.046-0.115-0.035-0.288,0.035-0.518c0.08-0.231,0.172-0.38,0.277-0.449
									c0.103-0.069,0.247-0.069,0.432,0l1.848,0.57v-1.676c0-0.218,0.049-0.377,0.147-0.475
									C270.097,151.252,270.262,151.203,270.492,151.203z"/>
								<path style="fill:#A5A9E8;" d="M281.167,151.203c0.242,0,0.412,0.049,0.51,0.147c0.097,0.098,0.147,0.262,0.147,0.493v1.641
									l1.831-0.57c0.173-0.058,0.311-0.052,0.415,0.017c0.103,0.069,0.195,0.207,0.276,0.414c0.069,0.231,0.077,0.406,0.025,0.527
									s-0.187,0.216-0.405,0.285l-1.762,0.536l1.174,1.658c0.093,0.138,0.121,0.27,0.087,0.397
									c-0.035,0.127-0.144,0.253-0.328,0.38c-0.184,0.127-0.345,0.182-0.483,0.164c-0.138-0.017-0.265-0.112-0.38-0.285
									l-1.122-1.52l-1.123,1.537c-0.115,0.161-0.24,0.245-0.372,0.25c-0.132,0.006-0.297-0.06-0.492-0.198
									c-0.173-0.127-0.271-0.253-0.293-0.38c-0.023-0.127,0.029-0.277,0.155-0.449l1.088-1.554l-1.832-0.536
									c-0.184-0.058-0.299-0.144-0.345-0.259c-0.046-0.115-0.035-0.288,0.035-0.518c0.08-0.231,0.172-0.38,0.277-0.449
									c0.103-0.069,0.247-0.069,0.432,0l1.849,0.57v-1.676c0-0.218,0.048-0.377,0.147-0.475
									C280.772,151.252,280.937,151.203,281.167,151.203z"/>
							</g>
						</g>
						<g>
							
								<ellipse transform="matrix(0.8003 -0.5997 0.5997 0.8003 2.7955 168.4825)" style="fill:#D7DBFD;" cx="254.299" cy="80.045" rx="32.603" ry="32.603"/>
							<circle style="fill:#FAFDF8;" cx="254.299" cy="73.854" r="12.047"/>
							<g>
								<path style="fill:#FAFDF8;" d="M254.299,112.649c9.336,0,17.749-3.93,23.693-10.219c-0.696-7.045-4.453-13.188-9.932-17.074
									c-3.29,3.932-8.233,6.435-13.761,6.435c-5.528,0-10.471-2.503-13.761-6.435c-5.479,3.886-9.236,10.029-9.932,17.074
									C236.55,108.718,244.963,112.649,254.299,112.649z"/>
							</g>
							
								<ellipse transform="matrix(0.8003 -0.5997 0.5997 0.8003 2.7955 168.4825)" style="fill:none;stroke:#A5A9E8;stroke-width:2;stroke-miterlimit:10;" cx="254.299" cy="80.045" rx="32.603" ry="32.603"/>
						</g>
					</g>
				</g>
			</g>
			<g>
				<path style="opacity:0.5;fill:#A5A9E8;" d="M148.483,204.131c-0.812,0-1.613,0.048-2.402,0.134v-88.864l-24.493-26.41H40.534
					c-6.049,0-10.953,4.904-10.953,10.952v127.739c0,6.049,4.904,10.952,10.953,10.952h90.181c3.959,5.541,10.44,9.156,17.769,9.156
					c12.056,0,21.83-9.774,21.83-21.83S160.54,204.131,148.483,204.131z"/>
				<g>
					<g>
						<g>
							<path style="fill:#FAFDF8;" d="M51.399,78.56c-6.049,0-10.953,4.904-10.953,10.952v127.738
								c0,6.049,4.904,10.952,10.953,10.952h94.595c6.049,0,10.952-4.904,10.952-10.952V104.97l-24.493-26.41H51.399z"/>
						</g>
						<g style="opacity:0.5;">
							<path style="fill:#D7DBFD;" d="M132.454,94.017c0,6.049,4.904,10.952,10.952,10.952h13.541l-24.493-26.41V94.017z"/>
						</g>
						<circle style="fill:#D7DBFD;" cx="59.331" cy="108.557" r="3.587"/>
						
							<line style="fill:none;stroke:#A5A9E8;stroke-linecap:round;stroke-linejoin:round;stroke-miterlimit:10;" x1="68.909" y1="111.814" x2="133.2" y2="111.814"/>
						<path style="fill:#D7DBFD;" d="M62.919,122.245c0,1.981-1.606,3.587-3.587,3.587c-1.981,0-3.587-1.606-3.587-3.587
							c0-1.981,1.606-3.587,3.587-3.587C61.313,118.658,62.919,120.264,62.919,122.245z"/>
						
							<line style="fill:none;stroke:#A5A9E8;stroke-linecap:round;stroke-linejoin:round;stroke-miterlimit:10;" x1="68.909" y1="125.502" x2="133.2" y2="125.502"/>
						<circle style="fill:#D7DBFD;" cx="59.331" cy="136.32" r="3.587"/>
						
							<line style="fill:none;stroke:#A5A9E8;stroke-linecap:round;stroke-linejoin:round;stroke-miterlimit:10;" x1="68.909" y1="139.577" x2="133.2" y2="139.577"/>
						<circle style="fill:#D7DBFD;" cx="59.331" cy="149.621" r="3.587"/>
						
							<line style="fill:none;stroke:#A5A9E8;stroke-linecap:round;stroke-linejoin:round;stroke-miterlimit:10;" x1="68.909" y1="152.877" x2="133.2" y2="152.877"/>
						<path style="fill:#D7DBFD;" d="M62.919,163.696c0,1.981-1.606,3.587-3.587,3.587c-1.981,0-3.587-1.606-3.587-3.587
							c0-1.981,1.606-3.587,3.587-3.587C61.313,160.109,62.919,161.714,62.919,163.696z"/>
						
							<line style="fill:none;stroke:#A5A9E8;stroke-linecap:round;stroke-linejoin:round;stroke-miterlimit:10;" x1="68.909" y1="166.952" x2="133.2" y2="166.952"/>
						<circle style="fill:#D7DBFD;" cx="59.331" cy="177.383" r="3.587"/>
						
							<line style="fill:none;stroke:#A5A9E8;stroke-linecap:round;stroke-linejoin:round;stroke-miterlimit:10;" x1="68.909" y1="180.64" x2="133.2" y2="180.64"/>
						<circle style="fill:#D7DBFD;" cx="59.331" cy="191.459" r="3.587"/>
						
							<line style="fill:none;stroke:#A5A9E8;stroke-linecap:round;stroke-linejoin:round;stroke-miterlimit:10;" x1="68.909" y1="194.715" x2="133.2" y2="194.715"/>
						<circle style="fill:#D7DBFD;" cx="59.331" cy="204.759" r="3.587"/>
						
							<line style="fill:none;stroke:#A5A9E8;stroke-linecap:round;stroke-linejoin:round;stroke-miterlimit:10;" x1="68.909" y1="208.016" x2="133.2" y2="208.016"/>
					</g>
					<g>
						
							<ellipse transform="matrix(0.7071 -0.7071 0.7071 0.7071 -105.73 175.804)" style="fill:#666EB2;" cx="159.349" cy="215.529" rx="21.83" ry="21.83"/>
						<circle style="fill:#FAFDF8;" cx="159.629" cy="215.529" r="16.983"/>
						<g>
							<path style="fill:#666EB2;" d="M156.947,225.047c-0.005,0-0.011,0-0.016,0c-0.471-0.005-0.913-0.231-1.192-0.612
								l-5.894-8.018c-0.491-0.667-0.347-1.606,0.32-2.097c0.668-0.491,1.607-0.348,2.097,0.32l4.711,6.41l10.715-13.948
								c0.504-0.658,1.445-0.781,2.103-0.276c0.657,0.504,0.781,1.446,0.276,2.103l-11.931,15.531
								C157.852,224.831,157.413,225.047,156.947,225.047z"/>
						</g>
					</g>
				</g>
			</g>
			<g>
				<circle style="opacity:0.5;fill:#A5A9E8;" cx="391.095" cy="88.658" r="44.396"/>
				<g>
					
						<ellipse transform="matrix(0.7071 -0.7071 0.7071 0.7071 59.3353 305.7484)" style="fill:#FAFDF8;" cx="398.739" cy="81.25" rx="44.396" ry="44.396"/>
					
						<ellipse transform="matrix(0.7071 -0.7071 0.7071 0.7071 59.3353 305.7484)" style="fill:#D7DBFD;" cx="398.739" cy="81.25" rx="39.076" ry="39.076"/>
					
						<ellipse transform="matrix(0.4907 -0.8713 0.8713 0.4907 132.2909 388.8209)" style="fill:#FAFDF8;" cx="398.739" cy="81.25" rx="33.985" ry="33.985"/>
					<g>
						<g>
							<path style="fill:#E5BC7A;" d="M414.484,76.412h-31.343v24.199c0,0,0,0.244,0,0.37c0,1.346,7.016,2.437,15.671,2.437
								c8.655,0,15.672-1.091,15.672-2.437c0-0.126,0-0.37,0-0.37V76.412z"/>
							<ellipse style="fill:#BBC2EF;" cx="398.813" cy="76.412" rx="15.671" ry="2.437"/>
							<ellipse style="fill:#E5BC7A;" cx="398.813" cy="76.412" rx="15.671" ry="2.437"/>
							<ellipse style="opacity:0.5;fill:#E5BC7A;" cx="398.813" cy="76.412" rx="15.671" ry="2.437"/>
							<ellipse style="fill:#BBC2EF;" cx="390.438" cy="76.354" rx="3.115" ry="0.809"/>
							<path style="fill:#BBC2EF;" d="M411.002,76.354c0,0.447-1.395,0.809-3.116,0.809c-1.721,0-3.116-0.362-3.116-0.809
								s1.395-0.809,3.116-0.809C409.607,75.546,411.002,75.908,411.002,76.354z"/>
							<path style="fill:#FFFFFF;" d="M400.53,89.144c0.702-0.525,1.162-1.355,1.162-2.299c0-1.59-1.289-2.88-2.88-2.88
								c-1.59,0-2.88,1.289-2.88,2.88c0,0.944,0.461,1.774,1.162,2.299l-0.947,5.292c-0.2,1.117,0.659,2.143,1.794,2.143h1.741
								c1.135,0,1.994-1.026,1.794-2.143L400.53,89.144z"/>
							<g>
								<path style="opacity:0.5;fill:#E5BC7A;" d="M399.683,97.879h-1.741c-0.926,0-1.799-0.407-2.394-1.118
									c-0.595-0.711-0.842-1.641-0.679-2.553l0.822-4.595c-0.68-0.757-1.057-1.731-1.057-2.768c0-2.304,1.875-4.179,4.179-4.179
									c2.304,0,4.179,1.875,4.179,4.179c0,1.037-0.377,2.01-1.057,2.768l0.822,4.594c0.163,0.913-0.085,1.843-0.679,2.554
									S400.609,97.879,399.683,97.879z M398.812,85.265c-0.871,0-1.58,0.709-1.58,1.581c0,0.495,0.234,0.954,0.641,1.259
									l0.641,0.48l-1.088,6.08c-0.037,0.209,0.055,0.358,0.114,0.428c0.058,0.07,0.189,0.187,0.401,0.187h1.741
									c0.212,0,0.342-0.117,0.401-0.187c0.059-0.07,0.151-0.219,0.114-0.428l-1.088-6.08l0.641-0.48
									c0.408-0.305,0.641-0.764,0.641-1.259C400.393,85.974,399.684,85.265,398.812,85.265z"/>
							</g>
							<g>
								<path style="fill:#C6C6C6;" d="M399.272,57.575v-0.007c-0.049,0-0.097,0.003-0.145,0.004
									c-0.06-0.001-0.119-0.004-0.18-0.004v0.008c-5.657,0.173-10.206,4.825-10.206,10.523v7.733v1.158
									c0.501,0.108,1.146,0.173,1.848,0.173c0.703,0,1.347-0.065,1.848-0.173v-1.158V68.1c0-3.718,2.985-6.746,6.683-6.828
									c4.258,0.082,7.085,3.11,7.085,6.828v7.733v1.158c0.501,0.108,1.146,0.173,1.848,0.173c0.703,0,1.346-0.065,1.848-0.173
									v-1.158V68.1C409.901,62.381,406.323,57.715,399.272,57.575z"/>
								<path style="opacity:0.5;fill:#C6C6C6;" d="M408.053,76.027v-8.024c0-4.816-3.879-8.723-8.682-8.777l-0.001-0.005
									c-0.017,0-0.033,0.002-0.049,0.002c-0.017,0-0.033-0.002-0.049-0.002l0,0.005c-4.804,0.053-8.683,3.96-8.683,8.777v8.024
									c-0.635,0-1.248,0.03-1.848-0.001v0.965c0.501,0.108,1.146,0.173,1.848,0.173c0.703,0,1.347-0.065,1.848-0.173v-1.158V68.1
									c0-3.714,3.39-6.74,7.095-6.827c3.694,0.087,6.673,3.113,6.673,6.827v7.733v1.158c0.501,0.108,1.146,0.173,1.848,0.173
									c0.703,0,1.346-0.065,1.848-0.173v-0.965C409.302,76.057,408.689,76.027,408.053,76.027z"/>
							</g>
							<path style="fill:#FFFFFF;" d="M400.53,89.144c0.702-0.525,1.162-1.355,1.162-2.299c0-1.59-1.289-2.88-2.88-2.88
								c-1.59,0-2.88,1.289-2.88,2.88c0,0.944,0.461,1.774,1.162,2.299l-0.947,5.292c-0.2,1.117,0.659,2.143,1.794,2.143h1.741
								c1.135,0,1.994-1.026,1.794-2.143L400.53,89.144z"/>
						</g>
					</g>
				</g>
			</g>
			<g>
				<circle style="opacity:0.5;fill:#A5A9E8;" cx="83.645" cy="337.01" r="52.807"/>
				<g>
					<circle style="fill:#FAFDF8;" cx="90.515" cy="327.715" r="52.807"/>
					<circle style="fill:#D7DBFD;" cx="90.515" cy="327.715" r="46.479"/>
					<circle style="fill:#FAFDF8;" cx="90.515" cy="327.715" r="40.423"/>
					<g>
						<g>
							<path style="fill:#E5BC7A;" d="M119.598,312.409c-5.251-1.097-10.381-2.378-15.402-4.266
								c-5.015-1.886-9.807-4.602-13.462-8.52l-0.007-0.013c-0.001,0.001-0.002,0.002-0.003,0.003
								c-0.001-0.001-0.002-0.002-0.004-0.003l-0.007,0.013c-3.655,3.918-8.447,6.635-13.462,8.52
								c-5.021,1.888-10.151,3.169-15.402,4.266c-0.234,10.017,1.868,20.199,6.873,28.878c4.768,8.268,12.282,15.071,21.238,18.32
								c0,0,0.569,0.331,0.764,0.265c0.194,0.066,0.764-0.265,0.764-0.265c8.955-3.249,16.469-10.053,21.237-18.32
								C117.73,332.608,119.832,322.426,119.598,312.409z"/>
							<path style="opacity:0.5;fill:#E5BC7A;" d="M114.467,315.489c-4.318-0.902-8.536-1.955-12.665-3.508
								c-4.124-1.551-8.065-3.785-11.07-7.006l-0.006-0.011c-0.001,0.001-0.002,0.002-0.003,0.003
								c-0.001-0.001-0.002-0.002-0.003-0.003l-0.006,0.011c-3.006,3.222-6.946,5.456-11.07,7.006
								c-4.129,1.552-8.347,2.606-12.666,3.508c-0.192,8.237,1.536,16.61,5.652,23.747c3.921,6.799,10.1,12.393,17.464,15.065
								c0,0,0.468,0.272,0.628,0.218c0.16,0.054,0.628-0.218,0.628-0.218c7.364-2.672,13.543-8.266,17.464-15.065
								C112.932,332.099,114.66,323.726,114.467,315.489z"/>
							<path style="fill:#FFFFFF;" d="M107.779,319.505c-3.102-0.648-6.132-1.405-9.098-2.52c-2.963-1.114-5.793-2.719-7.952-5.033
								l-0.004-0.008c-0.001,0.001-0.001,0.001-0.002,0.002c-0.001-0.001-0.001-0.001-0.002-0.002l-0.004,0.008
								c-2.159,2.314-4.989,3.919-7.952,5.033c-2.966,1.115-5.996,1.872-9.098,2.52c-0.138,5.917,1.103,11.931,4.06,17.057
								c2.816,4.883,7.255,8.902,12.544,10.821c0,0,0.336,0.195,0.451,0.157c0.115,0.039,0.451-0.157,0.451-0.157
								c5.29-1.919,9.728-5.938,12.544-10.821C106.675,331.436,107.917,325.422,107.779,319.505z"/>
						</g>
						<path style="fill:#E5BC7A;" d="M92.159,318.754l1.936,3.922c0.233,0.473,0.684,0.8,1.205,0.876l4.329,0.629
							c1.313,0.191,1.837,1.805,0.887,2.731l-3.132,3.053c-0.377,0.368-0.55,0.898-0.461,1.417l0.739,4.311
							c0.224,1.308-1.148,2.305-2.323,1.688l-3.872-2.035c-0.466-0.245-1.024-0.245-1.49,0l-3.872,2.035
							c-1.174,0.618-2.547-0.38-2.323-1.688l0.739-4.311c0.089-0.519-0.083-1.049-0.46-1.417l-3.132-3.053
							c-0.95-0.926-0.426-2.54,0.887-2.731l4.329-0.629c0.521-0.076,0.972-0.403,1.206-0.876l1.936-3.922
							C89.875,317.564,91.572,317.564,92.159,318.754z"/>
						<path style="opacity:0.5;fill:#E5BC7A;" d="M91.712,321.543l1.333,2.701c0.161,0.325,0.471,0.551,0.83,0.603l2.981,0.433
							c0.904,0.131,1.265,1.243,0.611,1.881l-2.157,2.103c-0.26,0.253-0.378,0.618-0.317,0.976l0.509,2.969
							c0.155,0.901-0.791,1.588-1.6,1.162l-2.666-1.402c-0.321-0.169-0.705-0.169-1.026,0l-2.666,1.402
							c-0.809,0.425-1.754-0.262-1.6-1.162l0.509-2.969c0.061-0.358-0.057-0.723-0.317-0.976l-2.157-2.103
							c-0.654-0.638-0.293-1.749,0.611-1.881l2.981-0.433c0.359-0.052,0.67-0.278,0.83-0.603l1.333-2.701
							C90.139,320.724,91.308,320.724,91.712,321.543z"/>
					</g>
				</g>
			</g>
		</g>
		<g>
			<g>
				<g>
					<path style="fill:#FFFFFF;" d="M42.334,274.101h-3.378c-0.358,0-0.649-0.291-0.649-0.649s0.291-0.649,0.649-0.649h3.378
						c0.358,0,0.649,0.29,0.649,0.649S42.692,274.101,42.334,274.101z"/>
				</g>
				<g>
					<path style="fill:#FFFFFF;" d="M35.275,274.101h-3.378c-0.358,0-0.649-0.291-0.649-0.649s0.291-0.649,0.649-0.649h3.378
						c0.358,0,0.649,0.29,0.649,0.649S35.633,274.101,35.275,274.101z"/>
				</g>
				<g>
					<path style="fill:#FFFFFF;" d="M37.116,279.319c-0.358,0-0.649-0.291-0.649-0.649v-3.378c0-0.358,0.291-0.649,0.649-0.649
						c0.358,0,0.649,0.291,0.649,0.649v3.378C37.764,279.029,37.474,279.319,37.116,279.319z"/>
				</g>
				<g>
					<path style="fill:#FFFFFF;" d="M37.116,272.261c-0.358,0-0.649-0.29-0.649-0.649v-3.378c0-0.358,0.291-0.649,0.649-0.649
						c0.358,0,0.649,0.291,0.649,0.649v3.378C37.764,271.97,37.474,272.261,37.116,272.261z"/>
				</g>
			</g>
			<g>
				<g>
					<path style="fill:#FFFFFF;" d="M42.982,62.456h-3.378c-0.358,0-0.649-0.291-0.649-0.649s0.291-0.649,0.649-0.649h3.378
						c0.358,0,0.649,0.291,0.649,0.649S43.341,62.456,42.982,62.456z"/>
				</g>
				<g>
					<path style="fill:#FFFFFF;" d="M35.924,62.456h-3.378c-0.358,0-0.649-0.291-0.649-0.649s0.291-0.649,0.649-0.649h3.378
						c0.358,0,0.649,0.291,0.649,0.649S36.282,62.456,35.924,62.456z"/>
				</g>
				<g>
					<path style="fill:#FFFFFF;" d="M37.764,67.674c-0.358,0-0.649-0.291-0.649-0.649v-3.378c0-0.358,0.291-0.649,0.649-0.649
						c0.358,0,0.649,0.291,0.649,0.649v3.378C38.413,67.384,38.122,67.674,37.764,67.674z"/>
				</g>
				<g>
					<path style="fill:#FFFFFF;" d="M37.764,60.616c-0.358,0-0.649-0.291-0.649-0.649v-3.378c0-0.358,0.291-0.649,0.649-0.649
						c0.358,0,0.649,0.291,0.649,0.649v3.378C38.413,60.325,38.122,60.616,37.764,60.616z"/>
				</g>
			</g>
			<g>
				<g>
					<path style="fill:#FFFFFF;" d="M167.909,51.823h-3.378c-0.358,0-0.649-0.291-0.649-0.649s0.29-0.649,0.649-0.649h3.378
						c0.358,0,0.649,0.291,0.649,0.649S168.267,51.823,167.909,51.823z"/>
				</g>
				<g>
					<path style="fill:#FFFFFF;" d="M160.85,51.823h-3.378c-0.358,0-0.649-0.291-0.649-0.649s0.29-0.649,0.649-0.649h3.378
						c0.358,0,0.649,0.291,0.649,0.649S161.208,51.823,160.85,51.823z"/>
				</g>
				<g>
					<path style="fill:#FFFFFF;" d="M162.69,57.041c-0.358,0-0.649-0.291-0.649-0.649v-3.378c0-0.358,0.29-0.649,0.649-0.649
						c0.358,0,0.649,0.291,0.649,0.649v3.378C163.339,56.75,163.049,57.041,162.69,57.041z"/>
				</g>
				<g>
					<path style="fill:#FFFFFF;" d="M162.69,49.982c-0.358,0-0.649-0.291-0.649-0.649v-3.378c0-0.358,0.29-0.649,0.649-0.649
						c0.358,0,0.649,0.291,0.649,0.649v3.378C163.339,49.692,163.049,49.982,162.69,49.982z"/>
				</g>
			</g>
			<g>
				<g>
					<path style="fill:#FFFFFF;" d="M346.776,41.04h-3.378c-0.358,0-0.649-0.291-0.649-0.649c0-0.358,0.29-0.649,0.649-0.649h3.378
						c0.358,0,0.649,0.291,0.649,0.649C347.425,40.75,347.134,41.04,346.776,41.04z"/>
				</g>
				<g>
					<path style="fill:#FFFFFF;" d="M339.718,41.04h-3.378c-0.358,0-0.649-0.291-0.649-0.649c0-0.358,0.29-0.649,0.649-0.649h3.378
						c0.358,0,0.649,0.291,0.649,0.649C340.366,40.75,340.076,41.04,339.718,41.04z"/>
				</g>
				<g>
					<path style="fill:#FFFFFF;" d="M341.558,46.258c-0.358,0-0.649-0.291-0.649-0.649v-3.378c0-0.358,0.291-0.649,0.649-0.649
						c0.358,0,0.649,0.291,0.649,0.649v3.378C342.207,45.968,341.916,46.258,341.558,46.258z"/>
				</g>
				<g>
					<path style="fill:#FFFFFF;" d="M341.558,39.2c-0.358,0-0.649-0.291-0.649-0.649v-3.378c0-0.358,0.291-0.649,0.649-0.649
						c0.358,0,0.649,0.291,0.649,0.649v3.378C342.207,38.909,341.916,39.2,341.558,39.2z"/>
				</g>
			</g>
			<g>
				<g>
					<path style="fill:#FFFFFF;" d="M472.175,122.894h-3.378c-0.358,0-0.649-0.291-0.649-0.649c0-0.358,0.29-0.649,0.649-0.649
						h3.378c0.358,0,0.649,0.291,0.649,0.649C472.824,122.603,472.533,122.894,472.175,122.894z"/>
				</g>
				<g>
					<path style="fill:#FFFFFF;" d="M465.117,122.894h-3.378c-0.358,0-0.649-0.291-0.649-0.649c0-0.358,0.29-0.649,0.649-0.649
						h3.378c0.358,0,0.649,0.291,0.649,0.649C465.765,122.603,465.475,122.894,465.117,122.894z"/>
				</g>
				<g>
					<path style="fill:#FFFFFF;" d="M466.957,128.112c-0.358,0-0.649-0.291-0.649-0.649v-3.378c0-0.358,0.291-0.649,0.649-0.649
						s0.649,0.291,0.649,0.649v3.378C467.606,127.821,467.315,128.112,466.957,128.112z"/>
				</g>
				<g>
					<path style="fill:#FFFFFF;" d="M466.957,121.053c-0.358,0-0.649-0.29-0.649-0.649v-3.378c0-0.358,0.291-0.649,0.649-0.649
						s0.649,0.291,0.649,0.649v3.378C467.606,120.763,467.315,121.053,466.957,121.053z"/>
				</g>
			</g>
			<g>
				<path style="fill:#FFFFFF;" d="M98.697,46.654c-2.47,0-4.48-2.01-4.48-4.48c0-2.47,2.01-4.48,4.48-4.48
					c2.47,0,4.48,2.01,4.48,4.48C103.177,44.645,101.167,46.654,98.697,46.654z M98.697,38.828c-1.845,0-3.346,1.501-3.346,3.347
					c0,1.845,1.501,3.347,3.346,3.347c1.846,0,3.347-1.501,3.347-3.347C102.044,40.329,100.542,38.828,98.697,38.828z"/>
			</g>
			<g>
				<path style="fill:#FFFFFF;" d="M476.202,274.403c-2.47,0-4.48-2.01-4.48-4.48c0-2.47,2.01-4.48,4.48-4.48
					c2.47,0,4.48,2.01,4.48,4.48C480.682,272.393,478.673,274.403,476.202,274.403z M476.202,266.576
					c-1.845,0-3.346,1.501-3.346,3.347c0,1.845,1.501,3.346,3.346,3.346c1.845,0,3.347-1.501,3.347-3.346
					C479.549,268.078,478.048,266.576,476.202,266.576z"/>
			</g>
			<g>
				<path style="fill:#FFFFFF;" d="M461.667,31.648c-2.47,0-4.48-2.01-4.48-4.48c0-2.47,2.01-4.48,4.48-4.48
					c2.47,0,4.48,2.01,4.48,4.48C466.147,29.638,464.137,31.648,461.667,31.648z M461.667,23.821c-1.845,0-3.347,1.501-3.347,3.347
					c0,1.845,1.501,3.347,3.347,3.347c1.846,0,3.347-1.501,3.347-3.347C465.014,25.322,463.513,23.821,461.667,23.821z"/>
			</g>
			<g>
				<path style="fill:#FFFFFF;" d="M25.101,389.518c-2.47,0-4.48-2.01-4.48-4.48c0-2.47,2.01-4.48,4.48-4.48
					c2.47,0,4.48,2.01,4.48,4.48C29.581,387.508,27.572,389.518,25.101,389.518z M25.101,381.691c-1.845,0-3.347,1.501-3.347,3.347
					c0,1.845,1.501,3.347,3.347,3.347c1.846,0,3.347-1.501,3.347-3.347C28.448,383.193,26.947,381.691,25.101,381.691z"/>
			</g>
			<circle style="fill:#FFFFFF;" cx="72.825" cy="37.045" r="1.378"/>
			<path style="fill:#FFFFFF;" d="M22,242.51c0,0.761-0.617,1.378-1.378,1.378c-0.761,0-1.378-0.617-1.378-1.378
				c0-0.761,0.617-1.378,1.378-1.378C21.383,241.132,22,241.749,22,242.51z"/>
			<path style="fill:#FFFFFF;" d="M334.619,73.976c0,0.761-0.617,1.378-1.378,1.378c-0.761,0-1.378-0.617-1.378-1.378
				s0.617-1.378,1.378-1.378C334.002,72.598,334.619,73.215,334.619,73.976z"/>
			<path style="fill:#FFFFFF;" d="M477.581,60.616c0,0.761-0.617,1.378-1.378,1.378c-0.761,0-1.378-0.617-1.378-1.378
				c0-0.761,0.617-1.378,1.378-1.378C476.963,59.237,477.581,59.854,477.581,60.616z"/>
			<path style="fill:#FFFFFF;" d="M391.816,23.821c0,0.761-0.617,1.378-1.378,1.378c-0.761,0-1.378-0.617-1.378-1.378
				c0-0.761,0.617-1.378,1.378-1.378C391.199,22.443,391.816,23.06,391.816,23.821z"/>
			<circle style="fill:#FFFFFF;" cx="111.953" cy="62.456" r="1.378"/>
			<path style="fill:#FFFFFF;" d="M41.825,29.531c0,0.761-0.617,1.378-1.378,1.378c-0.761,0-1.378-0.617-1.378-1.378
				c0-0.761,0.617-1.378,1.378-1.378C41.208,28.153,41.825,28.77,41.825,29.531z"/>
			<path style="fill:#FFFFFF;" d="M171.692,82.666c0,0.761-0.617,1.378-1.378,1.378s-1.378-0.617-1.378-1.378
				c0-0.761,0.617-1.378,1.378-1.378S171.692,81.905,171.692,82.666z"/>
			<path style="fill:#FFFFFF;" d="M146.079,27.393c0,0.761-0.617,1.378-1.378,1.378s-1.378-0.617-1.378-1.378
				c0-0.761,0.617-1.378,1.378-1.378S146.079,26.632,146.079,27.393z"/>
		</g>
	</g>
</g>
</svg>
