<svg fill="#283e46" viewBox="0 0 32 32" version="1.1" xmlns="http://www.w3.org/2000/svg"><g id="SVGRepo_bgCarrier" stroke-width="0"></g><g id="SVGRepo_tracerCarrier" stroke-linecap="round" stroke-linejoin="round"></g><g id="SVGRepo_iconCarrier"> <title>ellipsis-vertical-filled</title> <path d="M20.25 16c0 2.347-1.903 4.25-4.25 4.25s-4.25-1.903-4.25-4.25c0-2.347 1.903-4.25 4.25-4.25s4.25 1.903 4.25 4.25zM20.25 27c0 2.347-1.903 4.25-4.25 4.25s-4.25-1.903-4.25-4.25c0-2.347 1.903-4.25 4.25-4.25s4.25 1.903 4.25 4.25zM20.25 5c0 2.347-1.903 4.25-4.25 4.25s-4.25-1.903-4.25-4.25c0-2.347 1.903-4.25 4.25-4.25s4.25 1.903 4.25 4.25z"></path> </g></svg>