<svg viewBox="0 0 16 16" xmlns="http://www.w3.org/2000/svg" fill="#000000"><g id="SVGRepo_bgCarrier" stroke-width="0"></g><g id="SVGRepo_tracerCarrier" stroke-linecap="round" stroke-linejoin="round"></g><g id="SVGRepo_iconCarrier"> <g fill="#ffc107"> <path d="m 3 6 c -1.105469 0 -2 0.894531 -2 2 s 0.894531 2 2 2 s 2 -0.894531 2 -2 s -0.894531 -2 -2 -2 z m 5 0 c -1.105469 0 -2 0.894531 -2 2 s 0.894531 2 2 2 s 2 -0.894531 2 -2 s -0.894531 -2 -2 -2 z m 5 0 c -1.105469 0 -2 0.894531 -2 2 s 0.894531 2 2 2 s 2 -0.894531 2 -2 s -0.894531 -2 -2 -2 z m 0 0"></path> <path d="m 3 1 c -1.644531 0 -3 1.355469 -3 3 v 1 h 16 v -1 c 0 -1.644531 -1.355469 -3 -3 -3 z m -2.824219 10 c 0.417969 1.160156 1.53125 2 2.824219 2 h 1 v 3 l 3 -3 h 6 c 1.292969 0 2.40625 -0.839844 2.824219 -2 z m 0 0" fill-opacity="0.34902"></path> </g> </g></svg>